# xmcd
# Copyright (C) 1995-1998 Ti Kan
#
# Track frame offsets:
#       150
#       17137
#       36112
#       58387
#       72687
#       93772
#       116647
#       137825
#       154687
#       176700
#       196650
#       209925
#       226387
#
# Disc length: 3387 seconds
#
# Revision: 0
# Processed by: cddbd v1.4PL0 Copyright (c) Steve Scherf et al.
# Submitted via: CD-Transfer v1.0
#
DISCID=c10d390d
DTITLE=Rolf Gubler and Band - Brandy
DYEAR=2001
DGENRE=
TTITLE0=Dr Housi Macht Sy Chehr
TTITLE1=Visione Are Ample
TTITLE2=Simone De Beauvoir
TTITLE3=Truurwyde
TTITLE4=I Gah Scho Morn
TTITLE5=Stadtfuchs
TTITLE6=Amélie and Joe
TTITLE7=Was Sy De Das Für Strasse?
TTITLE8=Z'mittz Drinn
TTITLE9=Näbufee
TTITLE10=Rhythmus and Blues
TTITLE11=Dr Morge Het Ihri Tröim Verschlückt
TTITLE12=Brandy
EXTD=
EXTT0=
EXTT1=
EXTT2=
EXTT3=
EXTT4=
EXTT5=
EXTT6=
EXTT7=
EXTT8=
EXTT9=
EXTT10=
EXTT11=
EXTT12=
PLAYORDER=
